<svg width="215" height="58" viewBox="0 0 215 58" fill="none" xmlns="http://www.w3.org/2000/svg">
<g clip-path="url(#clip0_151_542)">
<path d="M30.8139 18.7037C30.8139 17.9854 30.2167 17.3869 29.5 17.3869C28.7833 17.3869 28.1861 17.9854 28.1861 18.7037V26.8438C28.1861 32.2307 22.8111 32.2307 22.8111 32.2307V18.7037C22.8111 14.9927 25.7972 12 29.5 12C33.2028 12 36.1889 14.9927 36.1889 18.7037H30.8139Z" fill="white"/>
<path d="M29.5 25.527H42.6389C42.6389 25.527 42.5194 20.1402 37.2639 20.1402H29.5V25.527Z" fill="white"/>
<path d="M14.6889 32.2307C13.9722 32.2307 13.375 32.8293 13.375 33.5475C13.375 34.2658 13.9722 34.8643 14.6889 34.8643H22.8111C28.1861 34.8643 28.1861 40.2512 28.1861 40.2512H14.6889C10.9861 40.3709 8 37.3782 8 33.5475C8 29.7168 10.9861 26.8438 14.6889 26.8438V32.2307Z" fill="white"/>
<path d="M21.4972 33.5475V20.3796C21.4972 20.3796 16.1222 20.4993 16.1222 25.7665V33.5475H21.4972Z" fill="white"/>
<path d="M44.3111 34.984C45.0278 34.984 45.625 34.3854 45.625 33.6672C45.625 32.9489 45.0278 32.3504 44.3111 32.3504H36.1889C30.8139 32.3504 30.8139 26.9635 30.8139 26.9635H44.3111C48.0139 26.9635 51 29.9562 51 33.6672C51 37.3782 48.0139 40.3709 44.3111 40.3709V34.984Z" fill="white"/>
<path d="M37.6221 33.6672V46.8351C37.6221 46.8351 42.9971 46.7154 42.9971 41.4482V33.6672H37.6221Z" fill="white"/>
<path d="M28.186 48.3914C28.186 49.1096 28.7833 49.7082 29.4999 49.7082C30.2166 49.7082 30.8138 49.1096 30.8138 48.3914V40.2512C30.8138 34.8643 36.1888 34.8643 36.1888 34.8643V48.3914C36.1888 52.1023 33.2027 55.095 29.4999 55.095C25.7971 55.095 22.811 52.1023 22.811 48.3914H28.186Z" fill="white"/>
<path d="M29.5 41.6877H16.3611C16.3611 41.6877 16.4805 47.0746 21.7361 47.0746H29.5V41.6877Z" fill="white"/>
<path d="M76.6141 20.9667H83.3991C83.6818 20.5417 84.1059 20.2583 84.2472 19.975C84.5299 19.6917 84.6713 19.55 84.954 19.55C85.2367 19.55 85.9435 19.8333 86.7916 20.5417C87.7811 21.25 88.2051 21.675 88.2051 21.9583C88.2051 22.1 88.0638 22.3833 87.6397 22.6667C87.2157 22.95 87.0743 23.0917 86.933 23.375V26.35C86.933 26.6333 86.6502 26.775 86.0848 27.0583C86.6502 27.4833 87.2157 27.7667 87.7811 28.1917C88.4878 28.6167 88.7706 28.9 88.7706 29.1833C88.7706 29.4667 88.6292 29.6083 88.3465 29.6083L87.0743 29.4667C86.3675 29.75 85.6608 30.175 84.5299 30.4583C84.6713 30.6 84.6713 30.6 84.8126 30.6C86.0848 31.1667 87.0743 31.7333 87.6397 32.4417C88.0638 33.0083 88.3465 33.575 88.3465 34.1417C88.3465 34.5667 88.2051 34.85 87.9224 35.1333C87.6397 35.5583 87.357 35.5583 87.0743 35.5583C86.6502 35.5583 85.6608 34.85 84.3886 33.2917C83.1164 31.875 81.4201 30.6 79.2998 29.6083L79.5825 29.1833C81.1374 29.4667 82.4096 29.8917 83.5404 30.175C83.8232 29.8917 84.1059 29.4667 84.3886 29.1833C84.8126 28.6167 85.2367 28.05 85.5194 27.3417C85.0953 26.9167 84.954 26.9167 84.6713 26.9167C84.1059 26.9167 83.8232 26.775 83.8232 26.2083V25.6417H81.2788C80.1479 26.9167 79.0171 27.9083 78.169 28.475V31.875C79.2998 31.7333 80.2893 31.45 81.4201 31.1667L81.5615 31.5917C79.5825 33.2917 77.3209 34.425 75.0592 34.9917C74.7765 35.1333 74.6351 35.1333 74.6351 35.275C74.4938 35.4167 74.4938 35.4167 74.4938 35.5583C74.4938 35.7 74.4938 35.7 74.4938 35.7C76.19 35.8417 78.3103 35.8417 81.2788 35.8417C83.9645 35.8417 86.9329 35.7 90.1841 35.275L90.3255 35.8417C89.6187 35.9833 88.9119 36.6917 88.4878 37.9667C88.3465 38.5333 88.2051 38.8167 88.0638 38.8167H80.572C78.8758 38.8167 76.6141 38.675 73.9283 38.5333C71.2426 37.9667 69.405 36.8333 68.2742 34.85C68.1328 34.85 68.1328 34.9917 67.9915 35.1333C67.2847 36.2667 66.5779 37.2583 65.7298 38.25C65.7298 38.9583 65.5884 39.3833 65.3057 39.3833C65.1644 39.3833 64.8817 39.1 64.7403 38.675C64.1749 37.6833 63.6095 36.55 63.0441 35.1333C64.3163 34.9917 65.3057 34.7083 66.0125 34.5667V26.9167C64.8817 26.9167 63.8922 27.0583 63.3268 27.2L62.9027 25.7833C63.6095 26.0667 64.599 26.2083 65.4471 26.2083C65.8712 25.925 66.1539 25.5 66.4366 25.2167C66.8606 24.7917 67.1433 24.5083 67.4261 24.5083C67.7088 24.5083 68.2742 24.9333 68.9809 25.5C69.8291 26.2083 70.2531 26.6333 70.2531 26.775C70.2531 27.0583 70.1118 27.3417 69.6877 27.4833C69.2637 27.7667 69.2637 28.05 69.2637 28.3333V33.575C70.1118 34.7083 71.2426 35.275 72.6562 35.4167C73.0802 35.5583 73.6456 35.5583 74.2111 35.5583C73.9283 35.275 73.6456 34.7083 73.5043 34.1417C73.3629 33.8583 73.0802 33.2917 72.7975 32.4417C73.787 32.3 74.7765 32.3 75.766 32.1583V29.75C75.6246 29.8917 75.3419 29.8917 75.2005 30.0333C73.9284 30.4583 72.5148 31.025 70.9599 31.3083L70.6772 30.8833C72.0907 30.3167 73.5043 29.4667 74.7765 28.6167C75.9073 27.7667 76.8968 26.775 77.7449 25.6417H76.4727V26.0667C76.4727 26.4917 76.0487 26.775 75.0592 26.9167C74.6351 27.0583 74.3524 27.0583 74.2111 27.0583C73.5043 27.0583 73.2216 26.775 73.2216 26.2083C73.3629 25.6417 73.3629 25.075 73.3629 24.3667V22.1C73.3629 21.3917 73.2216 20.6833 73.0802 19.6917C74.2111 19.975 75.3419 20.4 76.6141 20.9667ZM67.8501 19.6917C68.5569 20.1167 68.9809 20.6833 68.9809 21.25C68.9809 21.8167 68.6982 22.3833 68.2742 22.8083C67.9915 23.2333 67.5674 23.2333 67.002 23.2333C66.5779 23.2333 66.1539 22.8083 65.7298 22.1C65.3057 20.9667 64.4576 19.8333 63.3268 18.8417L63.6095 18.4167C65.5884 18.8417 67.1433 19.2667 67.8501 19.6917ZM68.9809 14.3083C69.6877 14.7333 69.9704 15.1583 69.9704 15.725C69.9704 16.2917 69.6877 16.8583 69.2637 17.2833C68.9809 17.7083 68.5569 17.85 67.9915 17.85C67.5674 17.85 67.1433 17.425 66.8606 16.7167C66.4366 15.5833 65.7298 14.7333 64.599 13.6L64.8817 13.175C66.7193 13.4583 68.1328 13.8833 68.9809 14.3083ZM76.0487 15.0167H78.169V14.5917C78.169 13.7417 78.0276 12.8917 77.8863 12.0417C79.1585 12.1833 80.4306 12.325 81.7028 12.4667C82.4096 12.6083 82.8337 12.75 82.8337 13.0333C82.8337 13.175 82.551 13.3167 82.1269 13.6C81.7028 13.8833 81.4201 14.1667 81.4201 14.45V15.0167H83.1164C83.2577 15.0167 83.5404 14.7333 83.9645 14.025C84.6713 13.3167 84.954 12.8917 85.0953 12.8917C85.3781 12.8917 85.8021 13.3167 86.5089 14.025C87.2157 14.7333 87.4984 15.1583 87.4984 15.4417C87.4984 15.725 87.357 15.8667 87.0743 15.8667H81.4201V18.4167H84.954C85.0953 18.4167 85.2367 17.9917 85.8021 17.425C86.3675 16.7167 86.7916 16.2917 86.933 16.2917C87.2157 16.2917 87.7811 16.7167 88.4878 17.425C89.1946 18.1333 89.6187 18.7 89.6187 18.8417C89.6187 19.125 89.4773 19.2667 89.1946 19.2667H75.3419C73.6456 19.2667 72.3735 19.4083 71.808 19.4083L71.384 18.275C72.3735 18.4167 73.6456 18.4167 75.4832 18.4167H78.3103V15.8667H76.19C74.4938 15.8667 73.2216 16.0083 72.6562 16.0083L72.0907 14.7333C72.9389 14.875 74.3524 15.0167 76.0487 15.0167ZM83.9645 24.7917V21.8167H76.3314V24.7917H83.9645Z" fill="white"/>
<path d="M109.267 15.725H116.335C116.335 14.3083 116.193 13.0333 116.193 11.9C117.183 12.0417 118.314 12.1833 119.727 12.4667C120.717 12.6083 121.282 12.8917 121.282 13.175C121.282 13.4583 120.999 13.7417 120.293 13.8833C119.868 14.025 119.586 14.3083 119.586 14.5917V15.725H125.805C125.947 15.725 126.229 15.3 126.936 14.45C127.643 13.4583 128.067 13.0333 128.208 13.0333C128.632 13.0333 129.198 13.4583 130.046 14.45C130.894 15.3 131.318 15.8667 131.318 16.15C131.318 16.4333 131.177 16.575 130.753 16.575H119.727V19.55H123.685C124.109 18.9833 124.533 18.5583 124.957 18.1333C125.24 17.7083 125.523 17.5667 125.805 17.5667C126.088 17.5667 126.654 17.85 127.502 18.4167C128.632 19.125 129.198 19.6917 129.198 19.8333C129.198 20.1167 128.915 20.4 128.491 20.6833C128.208 20.9667 128.067 21.25 128.067 21.5333V25.5C128.067 26.4917 128.067 27.7667 128.208 29.325C128.208 29.75 127.643 30.0333 126.654 30.175C126.229 30.3167 125.805 30.3167 125.664 30.3167C125.099 30.3167 124.816 30.0333 124.816 29.325V28.6167H120.151C121.847 30.3167 123.685 31.45 125.523 32.3C127.643 33.2917 129.763 33.8583 131.884 34.2833L131.742 34.9917C130.894 35.275 130.329 35.8417 130.046 36.6917C129.905 37.4 129.622 37.6833 129.339 37.6833C128.915 37.6833 128.067 37.2583 126.512 36.4083C125.099 35.5583 123.544 34.425 122.272 33.0083C121.141 31.875 120.293 30.7417 119.444 29.6083V33.15C119.444 34.9917 119.444 36.6917 119.586 38.5333C119.586 38.9583 119.02 39.2417 118.031 39.3833C117.607 39.525 117.324 39.525 117.041 39.525C116.335 39.525 115.911 39.2417 115.911 38.5333C116.052 36.55 116.193 34.7083 116.193 33.15V31.1667C115.487 32.0167 114.78 32.5833 114.214 33.15C112.942 34.1417 111.529 35.1333 109.832 35.8417C108.136 36.55 106.44 37.2583 104.461 37.825L104.32 37.4C106.298 36.4083 108.277 35.1333 110.115 33.7167C111.811 32.3 113.366 30.4583 114.497 28.6167H111.387V29.4667C111.387 29.8917 110.963 30.175 109.974 30.3167C109.55 30.4583 109.267 30.4583 108.984 30.4583C108.277 30.4583 107.995 30.175 107.995 29.4667C108.136 28.3333 108.136 27.3417 108.136 26.2083V22.3833C108.136 20.9667 107.995 19.4083 107.995 17.9917C109.408 18.4167 110.822 18.8417 112.235 19.4083H116.476V16.4333H109.408C107.712 16.4333 106.44 16.575 105.874 16.575L105.45 15.4417C106.157 15.5833 107.429 15.725 109.267 15.725ZM116.476 23.6583V20.4H111.529V23.6583H116.476ZM116.476 27.7667V24.5083H111.529V27.7667H116.476ZM119.727 23.6583H124.816V20.4H119.727V23.6583ZM119.727 27.7667H124.816V24.5083H119.727V27.7667Z" fill="white"/>
<path d="M161.427 12.4667C162.133 12.6083 162.558 12.75 162.558 13.0333C162.558 13.175 162.275 13.3167 161.851 13.4583C161.427 13.6 161.144 13.8833 161.144 14.1667V15.5833H167.646C167.788 15.5833 168.07 15.1583 168.636 14.3083C169.343 13.3167 169.767 12.8917 169.908 12.8917C170.332 12.8917 170.897 13.3167 171.746 14.3083C172.594 15.1583 173.018 15.725 173.018 16.0083C173.018 16.2917 172.876 16.4333 172.452 16.4333H164.112C164.395 16.575 164.819 16.575 165.102 16.7167C165.95 17 166.374 17.1417 166.374 17.425C166.374 17.7083 166.091 17.85 165.667 17.9917C165.243 18.1333 164.961 18.1333 164.819 18.275C164.395 18.9833 164.112 19.6917 163.547 20.2583C163.264 20.5417 162.982 20.825 162.699 21.1083H167.222C167.505 20.825 167.646 20.6833 167.929 20.4C168.494 19.975 168.918 19.6917 169.06 19.6917C169.343 19.6917 170.049 20.1167 170.897 20.6833C171.746 21.3917 172.311 21.8167 172.311 22.1C172.311 22.3833 172.028 22.525 171.604 22.95C171.039 23.375 170.756 23.6583 170.756 24.0833V36.2667C170.756 37.2583 170.191 37.9667 169.06 38.5333C168.07 38.9583 167.364 39.2417 166.798 39.2417C166.515 39.2417 166.374 38.8167 166.233 38.1083C165.95 37.2583 165.102 36.4083 163.547 35.8417V35.7C163.123 35.8417 162.84 35.8417 162.699 35.8417C162.133 35.8417 161.851 35.5583 161.851 34.9917V34.5667H156.621V35.7C156.621 36.125 156.197 36.4083 155.207 36.55C154.783 36.6917 154.5 36.6917 154.359 36.6917C153.652 36.6917 153.369 36.4083 153.369 35.7C153.511 34.7083 153.511 33.8583 153.511 32.8667V31.45C153.511 30.3167 153.369 29.1833 153.369 28.05C152.945 28.1917 152.38 28.3333 151.956 28.475L151.532 28.1917C152.097 27.9083 152.663 27.625 153.087 27.0583C153.511 26.6333 153.935 26.2083 154.218 25.7833C154.5 25.075 154.642 24.3667 154.642 23.375V22.1H151.249V38.675C151.249 39.1 150.825 39.3833 149.836 39.525C149.412 39.6667 149.129 39.6667 148.987 39.6667C148.281 39.6667 147.857 39.3833 147.857 38.675C147.998 36.55 148.139 34.7083 148.139 33.0083V25.075C148.139 23.6583 147.998 21.9583 147.857 19.975C149.129 20.2583 150.401 20.6833 151.391 21.25H154.924C154.783 20.825 154.642 20.4 154.359 19.6917C153.935 18.5583 153.511 17.5667 152.945 16.7167L153.087 16.575H149.836C148.139 16.575 146.867 16.7167 146.302 16.7167L145.878 15.5833C146.867 15.725 148.139 15.8667 149.977 15.8667H157.893V14.7333C157.893 13.8833 157.751 13.0333 157.61 12.1833C159.024 12.0417 160.296 12.325 161.427 12.4667ZM161.003 28.6167C161.427 28.1917 161.851 27.9083 162.133 27.4833C162.416 27.2 162.699 27.0583 162.982 27.0583C163.264 27.0583 163.688 27.3417 164.678 27.9083C165.667 28.6167 166.091 29.0417 166.091 29.325C166.091 29.6083 165.95 29.8917 165.526 30.0333C165.243 30.3167 165.102 30.6 165.102 30.8833V31.3083C165.102 32.1583 165.102 33.2917 165.243 34.7083C165.243 34.85 165.102 35.1333 164.961 35.1333C165.809 35.275 166.515 35.275 167.081 35.275C167.646 35.275 167.929 34.9917 167.929 34.2833V26.2083C167.222 26.4917 166.374 26.6333 165.102 26.6333H163.688C163.123 26.6333 162.699 26.6333 162.275 26.4917C161.427 26.35 161.003 25.7833 161.003 25.075V21.675H158.034V22.95C158.034 23.9417 157.751 24.7917 157.327 25.5C156.903 26.0667 156.197 26.6333 155.348 26.9167C155.066 27.0583 154.783 27.2 154.5 27.3417C155.49 27.625 156.338 28.05 157.327 28.475L161.003 28.6167ZM161.709 21.1083C161.992 20.4 162.133 19.55 162.275 18.8417C162.416 18.1333 162.558 17.2833 162.558 16.2917H155.066C155.348 16.4333 155.49 16.575 155.772 16.7167C156.338 17.1417 156.762 17.425 157.045 17.85C157.327 18.275 157.469 18.5583 157.469 18.9833C157.469 19.55 157.186 20.1167 156.762 20.5417C156.621 20.6833 156.479 20.9667 156.338 20.9667H161.709V21.1083ZM162.133 33.7167V29.4667H156.903V33.7167H162.133ZM163.406 23.8C163.406 24.225 163.547 24.5083 163.83 24.65C164.112 24.7917 164.536 24.7917 164.961 24.7917C165.385 24.7917 165.667 24.65 165.809 24.5083C165.95 24.225 165.95 23.6583 166.233 22.525H166.657L166.798 23.9417C166.798 24.225 167.081 24.3667 167.646 24.65C167.788 24.65 167.788 24.7917 167.788 24.7917V22.1H163.406V23.8Z" fill="white"/>
<path d="M195.352 12.6083C196.341 12.8917 196.765 13.175 196.765 13.3167C196.765 13.6 196.483 13.7417 195.917 13.7417C195.493 13.8833 195.21 13.8833 195.069 14.025C196.765 14.45 198.037 15.0167 198.886 15.5833C199.734 16.2917 200.158 17 200.158 17.9917C200.158 18.4167 200.016 18.7 199.734 19.125C199.451 19.4083 199.31 19.4083 198.886 19.4083C198.179 19.4083 197.472 18.9833 196.907 17.9917C196.483 17 195.634 16.0083 194.504 15.0167C193.797 16.2917 192.949 17.2833 192.101 18.1333C191.535 18.8417 190.828 19.4083 190.122 19.975C190.97 20.1167 192.101 20.1167 193.373 20.1167H194.645C194.645 20.1167 194.928 19.8333 195.352 19.2667C195.776 18.5583 196.2 18.275 196.341 18.275C196.624 18.275 197.048 18.5583 197.613 19.2667C198.179 19.975 198.462 20.2583 198.462 20.4C198.462 20.6833 198.32 20.825 198.179 20.825H194.928V24.7917H195.776C195.917 24.7917 196.059 24.5083 196.483 23.9417C196.907 23.2333 197.189 22.95 197.331 22.95C197.613 22.95 198.037 23.2333 198.603 23.9417C199.168 24.65 199.592 24.9333 199.592 25.075C199.592 25.3583 199.451 25.5 199.168 25.5H194.786V33.2917C196.341 33.0083 197.755 32.725 199.31 32.3L199.592 32.725C196.765 34.85 193.797 36.4083 190.546 37.4C190.122 37.4 190.122 37.5417 190.122 37.825C189.98 37.9667 189.98 38.1083 189.98 38.25C189.839 38.5333 189.839 38.675 189.698 38.675C189.274 38.675 188.708 37.9667 188.143 36.4083C188.001 35.9833 187.719 35.275 187.295 34.425C188.849 34.2833 190.404 34.1417 191.959 33.8583V25.5H191.535C189.839 25.5 188.567 25.6417 188.001 25.6417L187.577 24.5083C188.567 24.65 189.839 24.7917 191.677 24.7917H192.101V20.825C191.111 20.825 190.404 20.9667 189.839 20.9667L189.556 20.4C188.849 20.825 188.143 21.3917 187.436 21.8167L187.295 21.3917C188.143 20.4 189.274 18.9833 190.263 17.2833C191.111 15.8667 191.959 14.025 192.525 11.9C193.655 12.1833 194.504 12.4667 195.352 12.6083ZM190.828 29.325C191.252 30.0333 191.535 30.7417 191.535 31.45C191.535 32.1583 191.394 32.725 191.111 32.8667C190.687 33.2917 190.263 33.575 189.839 33.575C189.556 33.575 189.274 33.4333 189.132 33.15C188.991 33.0083 188.849 32.3 188.849 31.3083C188.849 30.175 188.708 28.9 188.425 27.3417L188.708 27.2C189.698 27.7667 190.404 28.475 190.828 29.325ZM199.027 27.4833C199.734 27.7667 200.158 28.1917 200.158 28.475C200.158 28.6167 200.016 28.7583 199.592 28.7583C199.168 28.9 198.886 28.9 198.886 28.9C198.037 30.3167 197.048 31.5917 195.917 32.725L195.493 32.3C195.917 30.6 196.2 28.6167 196.483 26.6333C197.331 26.9167 198.179 27.2 199.027 27.4833ZM203.974 14.025H208.356C208.78 13.6 209.204 13.0333 209.629 12.6083C209.911 12.325 210.194 12.1833 210.477 12.1833C210.759 12.1833 211.325 12.4667 212.173 13.0333C213.162 13.7417 213.728 14.3083 213.728 14.45C213.728 14.7333 213.445 15.0167 213.021 15.3C212.597 15.5833 212.597 15.8667 212.597 16.15V21.5333C212.597 22.525 212.597 23.8 212.738 25.3583C212.738 25.7833 212.314 25.925 211.466 26.0667C212.173 26.4917 212.88 27.0583 213.586 27.4833C214.293 28.05 214.717 28.475 214.717 28.7583C214.717 29.0417 214.576 29.1833 214.293 29.1833L212.597 28.9C211.749 29.6083 210.618 30.175 209.063 30.8833C209.204 31.1667 209.346 31.3083 209.487 31.45C210.053 32.3 210.759 33.0083 211.749 33.575C212.597 34.1417 213.586 34.7083 215 35.1333L214.859 35.8417C214.011 35.9833 213.304 36.55 212.88 37.5417C212.597 38.25 212.314 38.675 212.173 38.675C212.032 38.675 211.466 38.3917 210.901 37.6833C210.194 36.975 209.487 35.9833 208.922 34.7083C208.78 34.425 208.639 34.1417 208.498 33.8583C206.236 35.5583 203.974 36.6917 201.571 37.5417C201.289 37.6833 201.147 37.6833 201.147 37.9667C201.006 38.1083 201.006 38.25 201.006 38.3917C200.865 38.675 200.865 38.8167 200.582 38.8167C200.158 38.8167 199.592 38.1083 199.027 36.55C198.886 36.125 198.603 35.4167 198.179 34.5667C199.027 34.425 199.875 34.425 200.582 34.2833V18.5583C200.582 16.0083 200.441 14.1667 200.158 12.8917C201.289 13.0333 202.561 13.4583 203.974 14.025ZM209.346 19.125V14.875H203.833V19.125H209.346ZM209.346 24.225V19.8333H203.833V24.225H209.346ZM207.084 30.7417C206.66 29.325 206.377 27.4833 206.095 25.075H203.833V34.1417C205.247 33.8583 206.66 33.575 207.791 33.2917C207.508 32.4417 207.226 31.5917 207.084 30.7417ZM207.791 28.1917C208.074 29.0417 208.498 29.8917 208.78 30.4583C209.063 30.0333 209.346 29.6083 209.629 29.0417C210.053 28.1917 210.477 27.3417 210.759 26.35C210.477 26.4917 210.194 26.4917 210.053 26.4917C209.487 26.4917 209.204 26.2083 209.204 25.5V25.075H206.801C207.084 25.925 207.367 27.0583 207.791 28.1917Z" fill="white"/>
<path d="M63.5119 55H66.3019V54.739L65.2849 54.64H64.5289L63.5119 54.739V55ZM64.1869 55H65.4559C65.4379 54.307 65.4289 53.596 65.4289 52.894V50.401C65.3659 49.303 65.4379 48.637 65.7439 48.16C65.8789 47.944 66.1399 47.764 66.4369 47.728V47.656H66.0139V47.737L66.2389 48.088C66.4819 48.511 66.7249 48.664 67.0399 48.664C67.3999 48.664 67.6159 48.448 67.6249 48.133C67.5169 47.701 67.0489 47.539 66.5449 47.539C66.0229 47.539 65.5189 47.701 65.0689 48.115C64.6189 48.52 64.3039 49.123 64.2139 50.266V50.356L64.6369 50.131L63.4579 50.257V50.536H64.2139V52.894C64.2139 53.596 64.2049 54.307 64.1869 55ZM64.8259 50.536H66.6619V50.185H64.8259V50.536ZM68.9581 55.153C69.6871 55.153 70.0471 54.838 70.5691 54.262H70.8841L70.7491 53.785C70.1371 54.442 69.8221 54.595 69.5341 54.595C69.0931 54.595 68.7961 54.325 68.7961 53.785C68.7961 53.182 69.1291 52.777 69.7771 52.516C70.0921 52.399 70.6141 52.264 71.1001 52.138V51.904C70.6141 52.021 69.9571 52.183 69.4891 52.327C68.1121 52.705 67.6711 53.164 67.6711 53.947C67.6711 54.703 68.2111 55.153 68.9581 55.153ZM71.4781 55.144C71.9821 55.144 72.2971 54.955 72.5131 54.523L72.3601 54.397C72.1981 54.631 72.0991 54.703 71.9551 54.703C71.7571 54.703 71.6581 54.568 71.6581 54.154V51.796C71.6581 50.554 71.1361 50.041 69.9391 50.041C68.6701 50.041 67.9231 50.545 67.8151 51.346C67.8781 51.616 68.0761 51.76 68.3641 51.76C68.6611 51.76 68.9221 51.571 68.9491 51.049L69.0481 50.356L68.4811 50.581C68.9131 50.41 69.2191 50.338 69.5341 50.338C70.2271 50.338 70.4701 50.617 70.4701 51.571V54.163C70.5421 54.766 70.8571 55.144 71.4781 55.144ZM73.3209 55H76.0659V54.739L75.0669 54.631H74.2929L73.3209 54.739V55ZM73.9599 55H75.2289C75.2109 54.55 75.2019 53.515 75.2019 52.894V51.418L75.1389 50.131L75.0219 50.05L73.2579 50.545V50.77L73.9599 50.833C73.9779 51.265 73.9869 51.607 73.9869 52.21V52.894C73.9869 53.515 73.9779 54.55 73.9599 55ZM75.2019 52.12C75.4359 51.328 75.7509 50.905 76.2729 50.635L75.9399 50.59L76.1469 50.824C76.3719 51.121 76.5699 51.301 76.8759 51.301C77.2809 51.301 77.4609 51.022 77.4699 50.644C77.3799 50.194 77.0559 50.041 76.6509 50.041C76.0569 50.041 75.3999 50.59 75.1479 51.58H74.9049L75.2019 52.12ZM83.5142 55.153C84.4052 55.153 85.0712 54.739 85.4582 54.019L85.2962 53.893C84.9722 54.325 84.5582 54.577 83.9192 54.577C82.9832 54.577 82.2992 53.947 82.2992 52.462C82.2992 51.004 82.7942 50.338 83.4062 50.338C83.9732 50.338 84.3422 50.788 84.3422 51.58C84.3422 52.075 84.2252 52.264 83.8472 52.264H81.5522V52.57H85.4222C85.4672 52.408 85.4852 52.246 85.4852 52.03C85.4852 50.914 84.7652 50.041 83.4512 50.041C82.1732 50.041 81.0212 50.968 81.0212 52.588C81.0212 54.253 82.0562 55.153 83.5142 55.153ZM87.943 55.153C88.672 55.153 89.032 54.838 89.554 54.262H89.869L89.734 53.785C89.122 54.442 88.807 54.595 88.519 54.595C88.078 54.595 87.781 54.325 87.781 53.785C87.781 53.182 88.114 52.777 88.762 52.516C89.077 52.399 89.599 52.264 90.085 52.138V51.904C89.599 52.021 88.942 52.183 88.474 52.327C87.097 52.705 86.656 53.164 86.656 53.947C86.656 54.703 87.196 55.153 87.943 55.153ZM90.463 55.144C90.967 55.144 91.282 54.955 91.498 54.523L91.345 54.397C91.183 54.631 91.084 54.703 90.94 54.703C90.742 54.703 90.643 54.568 90.643 54.154V51.796C90.643 50.554 90.121 50.041 88.924 50.041C87.655 50.041 86.908 50.545 86.8 51.346C86.863 51.616 87.061 51.76 87.349 51.76C87.646 51.76 87.907 51.571 87.934 51.049L88.033 50.356L87.466 50.581C87.898 50.41 88.204 50.338 88.519 50.338C89.212 50.338 89.455 50.617 89.455 51.571V54.163C89.527 54.766 89.842 55.144 90.463 55.144ZM94.0788 55.153C95.3928 55.153 96.1578 54.541 96.1578 53.578C96.1578 52.876 95.7618 52.417 94.8258 52.111L94.3218 51.949C93.6378 51.742 93.4308 51.481 93.4308 51.121C93.4308 50.662 93.7818 50.365 94.3848 50.365C94.7898 50.365 95.0418 50.473 95.4018 50.707V50.437L95.0238 50.311L95.3748 51.517H95.8338L95.8878 50.437C95.3838 50.176 94.9428 50.041 94.3668 50.041C93.1248 50.041 92.4318 50.689 92.4318 51.562C92.4318 52.3 92.8998 52.741 93.6828 52.993L94.1868 53.164C94.9158 53.38 95.1048 53.641 95.1048 54.037C95.1048 54.541 94.7178 54.82 93.9888 54.82C93.5028 54.82 93.1788 54.703 92.7918 54.442V54.766L93.2238 54.82L92.9538 53.56H92.4408L92.3868 54.73C92.9088 55.009 93.4128 55.153 94.0788 55.153ZM98.4601 50.536H100.233V50.185H98.4601V50.536ZM99.1441 55.153C99.7561 55.153 100.17 54.919 100.44 54.496L100.296 54.352C100.053 54.532 99.8911 54.622 99.6571 54.622C99.2791 54.622 99.0631 54.397 99.0631 53.893V50.329L99.0811 48.745H98.2981L97.8841 50.275L98.0461 50.158L97.0651 50.257V50.536H97.8481V52.894C97.8481 53.245 97.8391 53.479 97.8391 53.821C97.8391 54.748 98.2801 55.153 99.1441 55.153ZM103.756 55.153C104.647 55.153 105.313 54.739 105.7 54.019L105.538 53.893C105.214 54.325 104.8 54.577 104.161 54.577C103.225 54.577 102.541 53.947 102.541 52.462C102.541 51.004 103.036 50.338 103.648 50.338C104.215 50.338 104.584 50.788 104.584 51.58C104.584 52.075 104.467 52.264 104.089 52.264H101.794V52.57H105.664C105.709 52.408 105.727 52.246 105.727 52.03C105.727 50.914 105.007 50.041 103.693 50.041C102.415 50.041 101.263 50.968 101.263 52.588C101.263 54.253 102.298 55.153 103.756 55.153ZM106.834 55H109.579V54.739L108.58 54.631H107.806L106.834 54.739V55ZM107.473 55H108.742C108.724 54.55 108.715 53.515 108.715 52.894V51.418L108.652 50.131L108.535 50.05L106.771 50.545V50.77L107.473 50.833C107.491 51.265 107.5 51.607 107.5 52.21V52.894C107.5 53.515 107.491 54.55 107.473 55ZM108.715 52.12C108.949 51.328 109.264 50.905 109.786 50.635L109.453 50.59L109.66 50.824C109.885 51.121 110.083 51.301 110.389 51.301C110.794 51.301 110.974 51.022 110.983 50.644C110.893 50.194 110.569 50.041 110.164 50.041C109.57 50.041 108.913 50.59 108.661 51.58H108.418L108.715 52.12ZM111.792 55H114.267V54.739L113.313 54.64H112.746L111.792 54.739V55ZM112.431 55H113.7C113.682 54.55 113.673 53.515 113.673 52.894V51.148L113.61 50.131L113.493 50.05L111.729 50.545V50.77L112.431 50.833C112.449 51.265 112.458 51.616 112.458 52.21V52.894C112.458 53.515 112.449 54.55 112.431 55ZM114.906 55H117.372V54.739L116.4 54.64H115.842L114.906 54.739V55ZM115.527 55H116.796C116.778 54.55 116.76 53.542 116.76 52.894V51.76C116.76 50.572 116.211 50.041 115.383 50.041C114.726 50.041 114.15 50.32 113.475 51.175H113.34L113.385 51.553C113.934 50.914 114.492 50.644 114.861 50.644C115.311 50.644 115.554 50.914 115.554 51.679V52.894C115.554 53.542 115.545 54.55 115.527 55ZM121.153 55H123.637V54.739L122.665 54.64H122.107L121.153 54.739V55ZM121.783 55H123.061C123.034 54.55 123.025 53.515 123.025 52.894V51.517L123.052 50.131L122.944 50.05L121.072 50.527V50.752L121.783 50.806C121.801 51.238 121.81 51.634 121.81 52.228V52.894C121.81 53.515 121.801 54.55 121.783 55ZM122.368 49.105C122.755 49.105 123.061 48.835 123.061 48.448C123.061 48.07 122.755 47.791 122.368 47.791C121.99 47.791 121.684 48.07 121.684 48.448C121.684 48.835 121.99 49.105 122.368 49.105ZM124.712 55H127.187V54.739L126.233 54.64H125.666L124.712 54.739V55ZM125.351 55H126.62C126.602 54.55 126.593 53.515 126.593 52.894V51.148L126.53 50.131L126.413 50.05L124.649 50.545V50.77L125.351 50.833C125.369 51.265 125.378 51.616 125.378 52.21V52.894C125.378 53.515 125.369 54.55 125.351 55ZM127.826 55H130.292V54.739L129.32 54.64H128.762L127.826 54.739V55ZM128.447 55H129.716C129.698 54.55 129.68 53.542 129.68 52.894V51.76C129.68 50.572 129.131 50.041 128.303 50.041C127.646 50.041 127.07 50.32 126.395 51.175H126.26L126.305 51.553C126.854 50.914 127.412 50.644 127.781 50.644C128.231 50.644 128.474 50.914 128.474 51.679V52.894C128.474 53.542 128.465 54.55 128.447 55ZM132.51 50.536H134.283V50.185H132.51V50.536ZM133.194 55.153C133.806 55.153 134.22 54.919 134.49 54.496L134.346 54.352C134.103 54.532 133.941 54.622 133.707 54.622C133.329 54.622 133.113 54.397 133.113 53.893V50.329L133.131 48.745H132.348L131.934 50.275L132.096 50.158L131.115 50.257V50.536H131.898V52.894C131.898 53.245 131.889 53.479 131.889 53.821C131.889 54.748 132.33 55.153 133.194 55.153ZM137.805 55.153C138.696 55.153 139.362 54.739 139.749 54.019L139.587 53.893C139.263 54.325 138.849 54.577 138.21 54.577C137.274 54.577 136.59 53.947 136.59 52.462C136.59 51.004 137.085 50.338 137.697 50.338C138.264 50.338 138.633 50.788 138.633 51.58C138.633 52.075 138.516 52.264 138.138 52.264H135.843V52.57H139.713C139.758 52.408 139.776 52.246 139.776 52.03C139.776 50.914 139.056 50.041 137.742 50.041C136.464 50.041 135.312 50.968 135.312 52.588C135.312 54.253 136.347 55.153 137.805 55.153ZM140.884 55H143.629V54.739L142.63 54.631H141.856L140.884 54.739V55ZM141.523 55H142.792C142.774 54.55 142.765 53.515 142.765 52.894V51.418L142.702 50.131L142.585 50.05L140.821 50.545V50.77L141.523 50.833C141.541 51.265 141.55 51.607 141.55 52.21V52.894C141.55 53.515 141.541 54.55 141.523 55ZM142.765 52.12C142.999 51.328 143.314 50.905 143.836 50.635L143.503 50.59L143.71 50.824C143.935 51.121 144.133 51.301 144.439 51.301C144.844 51.301 145.024 51.022 145.033 50.644C144.943 50.194 144.619 50.041 144.214 50.041C143.62 50.041 142.963 50.59 142.711 51.58H142.468L142.765 52.12ZM145.841 55H148.316V54.739L147.362 54.64H146.795L145.841 54.739V55ZM146.48 55H147.749C147.731 54.55 147.722 53.515 147.722 52.894V51.148L147.659 50.131L147.542 50.05L145.778 50.545V50.77L146.48 50.833C146.498 51.265 146.507 51.616 146.507 52.21V52.894C146.507 53.515 146.498 54.55 146.48 55ZM148.955 55H151.421V54.739L150.449 54.64H149.891L148.955 54.739V55ZM149.576 55H150.845C150.827 54.55 150.809 53.542 150.809 52.894V51.76C150.809 50.572 150.26 50.041 149.432 50.041C148.775 50.041 148.199 50.32 147.524 51.175H147.389L147.434 51.553C147.983 50.914 148.541 50.644 148.91 50.644C149.36 50.644 149.603 50.914 149.603 51.679V52.894C149.603 53.542 149.594 54.55 149.576 55ZM153.774 55.153C154.503 55.153 154.863 54.838 155.385 54.262H155.7L155.565 53.785C154.953 54.442 154.638 54.595 154.35 54.595C153.909 54.595 153.612 54.325 153.612 53.785C153.612 53.182 153.945 52.777 154.593 52.516C154.908 52.399 155.43 52.264 155.916 52.138V51.904C155.43 52.021 154.773 52.183 154.305 52.327C152.928 52.705 152.487 53.164 152.487 53.947C152.487 54.703 153.027 55.153 153.774 55.153ZM156.294 55.144C156.798 55.144 157.113 54.955 157.329 54.523L157.176 54.397C157.014 54.631 156.915 54.703 156.771 54.703C156.573 54.703 156.474 54.568 156.474 54.154V51.796C156.474 50.554 155.952 50.041 154.755 50.041C153.486 50.041 152.739 50.545 152.631 51.346C152.694 51.616 152.892 51.76 153.18 51.76C153.477 51.76 153.738 51.571 153.765 51.049L153.864 50.356L153.297 50.581C153.729 50.41 154.035 50.338 154.35 50.338C155.043 50.338 155.286 50.617 155.286 51.571V54.163C155.358 54.766 155.673 55.144 156.294 55.144ZM159.343 50.536H161.116V50.185H159.343V50.536ZM160.027 55.153C160.639 55.153 161.053 54.919 161.323 54.496L161.179 54.352C160.936 54.532 160.774 54.622 160.54 54.622C160.162 54.622 159.946 54.397 159.946 53.893V50.329L159.964 48.745H159.181L158.767 50.275L158.929 50.158L157.948 50.257V50.536H158.731V52.894C158.731 53.245 158.722 53.479 158.722 53.821C158.722 54.748 159.163 55.153 160.027 55.153ZM162.164 55H164.648V54.739L163.676 54.64H163.118L162.164 54.739V55ZM162.794 55H164.072C164.045 54.55 164.036 53.515 164.036 52.894V51.517L164.063 50.131L163.955 50.05L162.083 50.527V50.752L162.794 50.806C162.812 51.238 162.821 51.634 162.821 52.228V52.894C162.821 53.515 162.812 54.55 162.794 55ZM163.379 49.105C163.766 49.105 164.072 48.835 164.072 48.448C164.072 48.07 163.766 47.791 163.379 47.791C163.001 47.791 162.695 48.07 162.695 48.448C162.695 48.835 163.001 49.105 163.379 49.105ZM168.197 55.153C169.619 55.153 170.654 54.19 170.654 52.579C170.654 50.959 169.529 50.041 168.197 50.041C166.874 50.041 165.758 50.977 165.758 52.579C165.758 54.172 166.775 55.153 168.197 55.153ZM168.197 54.847C167.477 54.847 167.054 54.1 167.054 52.588C167.054 51.076 167.477 50.338 168.197 50.338C168.935 50.338 169.349 51.076 169.349 52.588C169.349 54.1 168.935 54.847 168.197 54.847ZM171.787 55H174.262V54.739L173.308 54.64H172.741L171.787 54.739V55ZM172.426 55H173.695C173.677 54.55 173.668 53.515 173.668 52.894V51.148L173.605 50.131L173.488 50.05L171.724 50.545V50.77L172.426 50.833C172.444 51.265 172.453 51.616 172.453 52.21V52.894C172.453 53.515 172.444 54.55 172.426 55ZM174.901 55H177.367V54.739L176.395 54.64H175.837L174.901 54.739V55ZM175.522 55H176.791C176.773 54.55 176.755 53.542 176.755 52.894V51.76C176.755 50.572 176.206 50.041 175.378 50.041C174.721 50.041 174.145 50.32 173.47 51.175H173.335L173.38 51.553C173.929 50.914 174.487 50.644 174.856 50.644C175.306 50.644 175.549 50.914 175.549 51.679V52.894C175.549 53.542 175.54 54.55 175.522 55ZM179.72 55.153C180.449 55.153 180.809 54.838 181.331 54.262H181.646L181.511 53.785C180.899 54.442 180.584 54.595 180.296 54.595C179.855 54.595 179.558 54.325 179.558 53.785C179.558 53.182 179.891 52.777 180.539 52.516C180.854 52.399 181.376 52.264 181.862 52.138V51.904C181.376 52.021 180.719 52.183 180.251 52.327C178.874 52.705 178.433 53.164 178.433 53.947C178.433 54.703 178.973 55.153 179.72 55.153ZM182.24 55.144C182.744 55.144 183.059 54.955 183.275 54.523L183.122 54.397C182.96 54.631 182.861 54.703 182.717 54.703C182.519 54.703 182.42 54.568 182.42 54.154V51.796C182.42 50.554 181.898 50.041 180.701 50.041C179.432 50.041 178.685 50.545 178.577 51.346C178.64 51.616 178.838 51.76 179.126 51.76C179.423 51.76 179.684 51.571 179.711 51.049L179.81 50.356L179.243 50.581C179.675 50.41 179.981 50.338 180.296 50.338C180.989 50.338 181.232 50.617 181.232 51.571V54.163C181.304 54.766 181.619 55.144 182.24 55.144ZM184.065 55H186.684V54.739L185.64 54.64H185.073L184.065 54.739V55ZM184.749 55H186.018C185.991 54.379 185.982 53.569 185.982 52.894V49.15L186.018 47.719L185.883 47.638L184.065 47.98V48.223L184.776 48.277V52.894C184.776 53.569 184.767 54.379 184.749 55ZM190.474 55L192.157 55.126L192.346 54.307V50.914L192.328 50.824V49.15L192.355 47.719L192.229 47.638L190.429 47.98V48.223L191.14 48.277V52.894C191.14 53.398 191.131 54.163 191.122 54.685L190.474 54.739V55ZM193.75 55.153C194.965 55.153 195.82 54.037 195.82 52.57C195.82 50.95 194.974 50.041 193.858 50.041C193.192 50.041 192.571 50.338 192.067 51.022H191.896L192.013 51.283C192.553 50.68 192.904 50.59 193.282 50.59C194.002 50.59 194.524 51.157 194.524 52.543C194.524 54.145 193.93 54.586 193.255 54.586C192.877 54.586 192.553 54.442 192.202 54.046L192.04 54.199H192.139C192.571 54.847 193.138 55.153 193.75 55.153ZM198.266 55.153C198.995 55.153 199.355 54.838 199.877 54.262H200.192L200.057 53.785C199.445 54.442 199.13 54.595 198.842 54.595C198.401 54.595 198.104 54.325 198.104 53.785C198.104 53.182 198.437 52.777 199.085 52.516C199.4 52.399 199.922 52.264 200.408 52.138V51.904C199.922 52.021 199.265 52.183 198.797 52.327C197.42 52.705 196.979 53.164 196.979 53.947C196.979 54.703 197.519 55.153 198.266 55.153ZM200.786 55.144C201.29 55.144 201.605 54.955 201.821 54.523L201.668 54.397C201.506 54.631 201.407 54.703 201.263 54.703C201.065 54.703 200.966 54.568 200.966 54.154V51.796C200.966 50.554 200.444 50.041 199.247 50.041C197.978 50.041 197.231 50.545 197.123 51.346C197.186 51.616 197.384 51.76 197.672 51.76C197.969 51.76 198.23 51.571 198.257 51.049L198.356 50.356L197.789 50.581C198.221 50.41 198.527 50.338 198.842 50.338C199.535 50.338 199.778 50.617 199.778 51.571V54.163C199.85 54.766 200.165 55.144 200.786 55.144ZM202.629 55H205.104V54.739L204.15 54.64H203.583L202.629 54.739V55ZM203.268 55H204.537C204.519 54.55 204.51 53.515 204.51 52.894V51.148L204.447 50.131L204.33 50.05L202.566 50.545V50.77L203.268 50.833C203.286 51.265 203.295 51.616 203.295 52.21V52.894C203.295 53.515 203.286 54.55 203.268 55ZM205.743 55H208.209V54.739L207.237 54.64H206.679L205.743 54.739V55ZM206.364 55H207.633C207.615 54.55 207.597 53.542 207.597 52.894V51.76C207.597 50.572 207.048 50.041 206.22 50.041C205.563 50.041 204.987 50.32 204.312 51.175H204.177L204.222 51.553C204.771 50.914 205.329 50.644 205.698 50.644C206.148 50.644 206.391 50.914 206.391 51.679V52.894C206.391 53.542 206.382 54.55 206.364 55ZM209.256 55H211.785V54.739L210.786 54.64H210.21L209.256 54.739V55ZM209.913 55H211.182C211.155 54.577 211.146 53.497 211.146 52.84V49.15L211.182 47.719L211.047 47.638L209.229 47.98V48.223L209.94 48.277V52.894C209.94 53.497 209.931 54.577 209.913 55ZM210.525 53.416L214.008 50.185H213.477L212.019 51.607L210.579 53.02H210.525V53.416ZM213.009 55H214.764V54.739L214.134 54.676L212.46 51.526L211.614 52.3L213.009 55ZM212.208 50.446L213.27 50.581L213.459 50.554L214.503 50.446V50.185H212.208V50.446Z" fill="white"/>
</g>
<defs>
<clipPath id="clip0_151_542">
<rect width="215" height="58" fill="white"/>
</clipPath>
</defs>
</svg>
